<?xml version="1.0" encoding="utf-8"?>
<!-- Generator: Adobe Illustrator 24.1.3, SVG Export Plug-In . SVG Version: 6.00 Build 0)  -->
<svg version="1.1" id="图层_1" xmlns="http://www.w3.org/2000/svg" xmlns:xlink="http://www.w3.org/1999/xlink" x="0px" y="0px"
	 viewBox="0 0 32 32" style="enable-background:new 0 0 32 32;" xml:space="preserve">
<style type="text/css">
	.st0{fill-opacity:0.65;}
	.st1{fill-opacity:0.25;}
</style>
<path id="形状" class="st0" d="M28,6.2v5.1h0.9c0.5,0,1.1,0.5,1.1,1.1c0,0.5-0.5,1.1-1.1,1.1h-2.7c0.9,1.5,0.9,3.5,0,5.1h2.7
	c0.5,0,1.1,0.5,1.1,1.1s-0.5,1.1-1.1,1.1H28v5.1h0.9c0.5,0,1.1,0.5,1.1,1.1c0,0.5-0.5,1.1-1.1,1.1H9.5c-3.6,0-5.6-4.4-3.8-7.3H3.1
	c-0.5,0-1.1-0.5-1.1-1.1s0.5-1.1,1.1-1.1H4v-5.1H3.1c-0.5,0-1.1-0.5-1.1-1.1c0-0.5,0.5-1.1,1.1-1.1h2.7C4,8.4,5.9,4,9.5,4h19.4
	C29.5,4,30,4.5,30,5.1s-0.5,1.1-1.1,1.1H28z M22.5,13.5H5.2v5.1h17.2c0.5,0,1.3-0.4,1.6-0.7c0.9-1.1,0.9-2.7,0-3.6
	C23.5,13.8,23,13.5,22.5,13.5z M26.8,20.7H9.5c-0.5,0-1.3,0.4-1.6,0.7c-1.4,1.5-0.5,4.4,1.6,4.4h17.2V20.7z M26.8,11.3V6.2H9.5
	c-2.2,0-2.9,2.9-1.6,4.4c0.4,0.4,0.9,0.7,1.6,0.7H26.8z"/>
<path id="形状结合" class="st1" d="M26.8,20.7v5.1H9.5c-2.2,0-3.1-2.9-1.6-4.4c0.4-0.4,1.1-0.7,1.6-0.7l0,0H26.8z M22.5,13.5
	c0.5,0,1.1,0.4,1.6,0.7c0.9,0.9,0.9,2.5,0,3.6c-0.4,0.4-1.1,0.7-1.6,0.7l0,0H5.2v-5.1H22.5z M26.8,6.2v5.1H9.5
	c-0.7,0-1.3-0.4-1.6-0.7C6.7,9.1,7.4,6.2,9.5,6.2l0,0H26.8z"/>
</svg>
