<?xml version="1.0" encoding="utf-8"?>
<!-- Generator: Adobe Illustrator 24.1.3, SVG Export Plug-In . SVG Version: 6.00 Build 0)  -->
<svg version="1.1" id="图层_1" xmlns="http://www.w3.org/2000/svg" xmlns:xlink="http://www.w3.org/1999/xlink" x="0px" y="0px"
	 viewBox="0 0 32 32" style="enable-background:new 0 0 32 32;" xml:space="preserve">
<style type="text/css">
	.st0{fill-rule:evenodd;clip-rule:evenodd;fill:#FFFFFF;}
</style>
<path id="形状结合" class="st0" d="M19.4,2l0.1,0.2c0.2-0.1,0.4-0.2,0.6-0.1c0,0,0.1,0,0.1,0c0.1,0,0.2,0,0.3,0.1l0.1,0.1
	L25.3,5c0.2,0.1,0.3,0.3,0.4,0.5c0.1,0.1,0.2,0.3,0.2,0.5c0,0.2-0.1,0.5-0.3,0.6c-0.6,1.4-1.5,4.9,3.7,5.5l0.3,0l0,0l0,0
	c0.1,0,0.1,0.1,0.2,0.1c0.1,0.1,0.3,0.3,0.3,0.5l0,0.1v5.7c0,0.3-0.2,0.6-0.5,0.7l0,0l0,0c-5.6,0.5-4.6,4.1-4,5.5
	c0.2,0.1,0.3,0.4,0.3,0.6c0,0,0,0.1,0,0.1c0.1,0.3,0,0.6-0.3,0.8l-0.1,0.1l-4.6,2.8c-0.1,0.1-0.2,0.1-0.3,0.1c0,0-0.1,0.1-0.2,0.1
	c-0.3,0.1-0.6,0.1-0.8-0.1l-0.1,0.2c-3.1-4.7-5.8-2.2-6.8-1c0,0.2-0.1,0.4-0.3,0.5l-0.1,0l0,0c-0.2,0.3-0.6,0.3-0.9,0.2l-0.1-0.1
	l-4.6-2.8c-0.1,0-0.2-0.1-0.2-0.2c-0.2-0.1-0.3-0.4-0.3-0.6c0-0.1,0-0.1,0-0.2l0,0c0,0,0,0,0,0c0-0.1,0.1-0.2,0.1-0.3
	c0.6-1.2,2-5.1-3.6-5.8l-0.3,0l0,0c-0.3-0.1-0.4-0.3-0.5-0.6l0-0.1v-5.4C2,13.1,2,13,2,13c0,0,0-0.1,0-0.1c0-0.3,0.2-0.6,0.5-0.7
	l0,0c5.6-0.5,4.6-4.1,4-5.5C6.3,6.4,6.2,6.2,6.2,6c0-0.3,0.1-0.5,0.3-0.6c0,0,0.1-0.1,0.1-0.1l0.1-0.1l4.6-2.8
	c0.4-0.2,0.8-0.1,1,0.2c0,0,0,0.1,0.1,0.1C13.2,3.7,16.1,7.1,19.4,2z M16.3,10.9c-2.7,0-4.9,2.2-4.9,4.9s2.2,4.9,4.9,4.9
	s4.9-2.2,4.9-4.9S19,10.9,16.3,10.9z"/>
</svg>
