<?xml version="1.0" encoding="utf-8"?>
<!-- Generator: Adobe Illustrator 24.1.3, SVG Export Plug-In . SVG Version: 6.00 Build 0)  -->
<svg version="1.1" id="图层_1" xmlns="http://www.w3.org/2000/svg" xmlns:xlink="http://www.w3.org/1999/xlink" x="0px" y="0px"
	 viewBox="0 0 31 32" style="enable-background:new 0 0 31 32;" xml:space="preserve">
<style type="text/css">
	.st0{fill:#FFFFFF;}
</style>
<g id="menu_w_quit">
	<g id="退出" transform="translate(2.000000, 2.000000)">
		<path id="形状" class="st0" d="M13.7,14c-0.6,0-1-0.4-1-1V1c0-0.6,0.5-1,1-1c0.6,0,1,0.5,1,1v12c0,0.3-0.1,0.5-0.3,0.7
			C14.3,13.9,14,14,13.7,14L13.7,14z M13.4,28c-3.5,0-6.9-1.3-9.5-3.8c-1.2-1.2-2.2-2.6-2.9-4.1c-1.6-3.5-1.4-7.6,0.5-11
			c1-1.8,2.4-3.3,4.1-4.5c0.5-0.3,1.1-0.2,1.5,0.2C7.2,5,7.3,5.3,7.3,5.6c0,0.3-0.2,0.5-0.4,0.6c-1.4,1-2.6,2.3-3.4,3.8
			c-0.9,1.5-1.3,3.3-1.3,5c0,2.9,1.2,5.6,3.3,7.7c2.1,2.1,5,3.2,8,3.2c3,0,5.8-1.1,8-3.2c2.1-2,3.3-4.8,3.3-7.7c0-1.8-0.4-3.5-1.3-5
			c-0.8-1.5-2-2.8-3.4-3.8c-0.2-0.1-0.4-0.4-0.4-0.6s0-0.5,0.2-0.7l0,0c0.3-0.5,1-0.6,1.5-0.2c1.7,1.2,3.1,2.7,4.1,4.5
			c1.9,3.4,2,7.5,0.5,11c-0.7,1.5-1.7,2.9-2.9,4.1c-1.2,1.2-2.7,2.1-4.3,2.8C17,27.6,15.2,28,13.4,28z"/>
	</g>
</g>
</svg>
