<?xml version="1.0" encoding="utf-8"?>
<!-- Generator: Adobe Illustrator 24.1.3, SVG Export Plug-In . SVG Version: 6.00 Build 0)  -->
<svg version="1.1" id="图层_1" xmlns="http://www.w3.org/2000/svg" xmlns:xlink="http://www.w3.org/1999/xlink" x="0px" y="0px"
	 viewBox="0 0 32 32" style="enable-background:new 0 0 32 32;" xml:space="preserve">
<style type="text/css">
	.st0{fill:#FFFFFF;fill-opacity:0.65;}
	.st1{fill:#FFFFFF;fill-opacity:0.85;}
</style>
<g id="日志查询" transform="translate(2.000000, 2.000000)">
	<path id="形状结合" class="st0" d="M22.8,0C25.6,0,28,2.4,28,5.2v17.6c0,2.8-2.4,5.2-5.2,5.2H7V0H22.8z M14.3,3v0.2l-0.1,0.1
		c-0.1-0.1-0.2-0.1-0.3-0.2c-0.1,0-0.2,0-0.2,0l0,0V4c0,0.3,0,0.1-0.2,0.3c-0.1,0.2-0.1,0.2,0,0.1l0,0v0.3c0.2,0.2,0.3,0.3,0.4,0.5
		C14,5.4,14,5.5,14.1,5.6C14.1,5.7,14,6,14.1,6c0.1,0,0.1,0.1,0.1,0.4l0,0l0.1,0.2c0.1,0.1,0.1,0.2,0.1,0.3c0,0.1,0,0.2-0.1,0.3
		c-0.1,0.1,0,0.1,0,0.2c0,0.1,0.1,0.3,0.1,0.3s0.1,0.1,0.1,0.2C14.5,8,14.4,8,14.4,8l0,0v0.8c0,0.2,0.1,0.1,0.1,0.2
		c0,0.1,0,0.2,0.1,0.2l0,0l0.2,0.3l0.1,0.1L15,9.8h0.3l0.2,0.1l0.1,0.3c0,0-0.1,0.1-0.3,0.1c-0.1,0-0.1,0-0.1,0.1l0,0v0.1l0.1,0.4
		l-0.1,0.2c0.1,0.1,0.2,0.2,0.3,0.2c0.2,0,0.1,0.3,0.1,0.3l0,0h-0.8c-0.1,0.1-0.2,0.2-0.3,0.2c-0.1,0-0.1,0.1,0,0.2
		c0.1,0.2,0.2,0.3,0.2,0.4s0,0.1-0.1,0.2l0,0l-0.1,0.3h0.3v0.2c0.1,0.1,0.1,0.2,0,0.2c-0.1,0,0.1,0.2,0.1,0.2l0,0l0.3,0.1h0.3
		l0.1,0.2l0.1,0.4v0.3c0,0.1-0.1,0.3-0.2,0.4c-0.1,0.2,0,0.3,0,0.4l0,0v1.8c0,0.1-0.1,0.2-0.2,0.1c0,0.1,0,0.1-0.1,0.1l0,0H15
		c0,0-0.2,0.1-0.3,0.2c-0.1,0.1,0,0.1,0,0.3c0,0.2-0.1,0.1-0.2,0.2c-0.1,0.1-0.2,0-0.3,0.1c-0.1,0.1-0.2,0.1-0.3,0l0,0l-0.5,0.1
		c-0.1-0.1-0.3-0.2-0.4-0.2c-0.2,0-0.1-0.1-0.6-0.2c-0.5-0.1,0,0.1-0.1,0.1c-0.1,0,0,0.1,0,0.2c0,0.1,0,0.2,0.1,0.3
		c0.1,0.1,0.1,0.1,0.1,0.2c0,0.1,0,0.1-0.1,0.1c-0.1,0-0.1,0.1-0.1,0.1l0,0v0.6c0,0.5-0.2,0-0.2,0s-0.1,0.3,0,0.3
		c0.1,0,0.1,0.1,0.2,0.3c-0.1,0.3-0.2,0.5-0.2,0.6s0.1,0.2,0.2,0.2l0,0l0.2,0.2l0.2,0.1l0.2,0.3l-0.4,0.1v0.6
		c-0.1,0.1-0.1,0.2-0.1,0.3c0,0.1,0,0.2-0.1,0.2c0,0.1-0.1,0.1-0.2,0.1l0,0H12v0.9l0.2,0.1h0.4l0.2,0.1l0.1,0.2l0.1,0.1h0.2l0.2-0.1
		l0.3-0.1l0.2-0.1l0.2,0.1h0.1l0.1,0.2l0.2,0.2v0.1l0.2,0.2l0.1,0.1H15l0.3-0.1h0.3v-0.2l0.3-0.1l0.3-0.4h0.4l0.2-0.2l0.1-0.2h0.2
		l0.2-0.2v-0.3c-0.1-0.1-0.2-0.2-0.2-0.3c0-0.1-0.1-0.1-0.2-0.1l0,0l-0.1,0.1h-0.2v-0.1l0.2-0.2l0.1-0.2l0.2-0.1l-0.2-0.2v-0.4
		l0.2-0.1v-0.3c0-0.1,0.1-0.1,0.2-0.2l0,0l0.2-0.1v-0.2h-0.2v-0.4l0.2-0.3l0.3-0.2l0.1-0.3l0.4-0.2v-0.2l0.1-0.2l0.2-0.3
		c0.3-0.2,0.5-0.3,0.8-0.4c0.2-0.1,0.5-0.1,0.7,0l0,0l0.1-0.1l0.2-0.1l0.2,0.1h0.2V18l0.3-0.1V17l0.1-0.1l0.3-0.2v-0.4l0.1-0.3
		l0.3-0.1l0.1-0.2l-0.3-0.3l-0.1-0.4h0.1l0.3-0.2c0,0,0.2-0.3,0.2-0.5c0-0.2-0.4-0.4-0.2-0.4s0.2-0.2,0.2-0.2s0.3-0.2,0.3-0.4
		c0-0.1,0.2-0.5,0.2-0.5s0.1-0.2,0.1-0.5c0-0.3-0.2-0.4-0.6-0.5c-0.5-0.2,0-0.1,0-0.2l0,0v-0.3c0-0.1-0.1-0.3-0.2-0.4
		c-0.1-0.1-0.6-0.5-0.8-0.7c-0.2-0.2-0.3-0.2-0.4-0.4c-0.2-0.2-0.2-0.2-0.5-0.4C20.2,9.4,19.8,9,19.8,9s-0.3-0.2-0.4-0.2
		S19.2,8.9,19.2,9c0,0.1,0,0.1-0.1,0.1l0,0l-0.4,0.1V8.6c0,0,0.2-0.1,0.2-0.3c0-0.2-0.1,0-0.2-0.2c-0.1-0.1-0.2-0.1-0.4,0
		c0,0.1-0.1,0.4-0.2,0.7c-0.2,0.5-0.1,0-0.2,0.1C17.8,9,17.8,9,17.7,9l0,0l-0.3-0.2V8.5l-0.2-0.2V8c0-0.1-0.2,0.1-0.2,0.1
		s-0.2,0.2-0.3,0.2c-0.1,0-0.1-0.1,0-0.2c0.1-0.4,0.1-0.7,0.1-0.7c0-0.1,0.1-0.1,0.4-0.2l0,0V6.9l-0.2-0.1c0,0-0.1-0.1-0.2-0.1
		c-0.1,0-0.3-0.1-0.6-0.2l0,0l-0.7,0.1c-0.3-0.1-0.5-0.1-0.5-0.1c-0.1,0-0.1-0.1,0-0.3l0,0L14.9,5V4.3h-0.4L14.7,4V3.4l-0.2-0.1
		L14.3,3z"/>
	<path id="路径" class="st1" d="M0,22.8V5.2C0,2.4,2.4,0,5.2,0v28C2.4,28,0,25.6,0,22.8z"/>
</g>
</svg>
