<?xml version="1.0" encoding="utf-8"?>
<!-- Generator: Adobe Illustrator 24.1.3, SVG Export Plug-In . SVG Version: 6.00 Build 0)  -->
<svg version="1.1" id="图层_1" xmlns="http://www.w3.org/2000/svg" xmlns:xlink="http://www.w3.org/1999/xlink" x="0px" y="0px"
	 viewBox="0 0 32 32" style="enable-background:new 0 0 32 32;" xml:space="preserve">
<style type="text/css">
	.st0{fill:#FFFFFF;fill-opacity:0.85;}
	.st1{opacity:0.65;fill:#FFFFFF;enable-background:new    ;}
</style>
<path id="形状结合" class="st0" d="M27.7,11c1.1,0,2,0.9,2,2c0,0.1,0,0.2,0,0.3c-1.3,8.5-2,13.2-2.2,14.1
	C27.2,29,25.9,29,25.8,29L6.2,29c0,0-1.4,0-1.7-1.6c-0.1-0.9-0.9-5.6-2.2-14.1C2.2,12.2,2.9,11.2,4,11c0.1,0,0.2,0,0.3,0H27.7z
	 M13,17h-2v2c0,1.1,0.9,2,2,2l0,0h6c1.1,0,2-0.9,2-2l0,0v-2h-2v1l0,0.1c-0.1,0.5-0.5,0.9-1,0.9l0,0h-4l-0.1,0
	c-0.5-0.1-0.9-0.5-0.9-1l0,0V17z"/>
<path id="矩形" class="st1" d="M8,7h16c1.1,0,2,0.9,2,2l0,0l0,0H6C6,7.9,6.9,7,8,7z"/>
<path id="矩形_1_" class="st1" d="M12,3h8c1.1,0,2,0.9,2,2l0,0l0,0H10C10,3.9,10.9,3,12,3z"/>
</svg>
