<?xml version="1.0" encoding="utf-8"?>
<!-- Generator: Adobe Illustrator 24.1.3, SVG Export Plug-In . SVG Version: 6.00 Build 0)  -->
<svg version="1.1" id="图层_1" xmlns="http://www.w3.org/2000/svg" xmlns:xlink="http://www.w3.org/1999/xlink" x="0px" y="0px"
	 viewBox="0 0 32 32" style="enable-background:new 0 0 32 32;" xml:space="preserve">
<style type="text/css">
	.st0{fill:#FFFFFF;fill-opacity:0.85;}
	.st1{fill:#FFFFFF;fill-opacity:0.65;}
</style>
<path id="形状结合" class="st0" d="M20.9,2c2.1,0,3.5,1.2,3.5,3.1l0,0v17c0,0.5-0.4,0.9-0.9,0.9l0,0H7.7c-1.1,0-2.1,0.5-2.1,1.4
	l0,0v1.9c0,0.9,1.2,1.7,2.3,1.7l0,0h16.6c0.9,0,1.8-0.9,1.8-1.7l0,0V6.2c0-0.5,0.4-0.9,0.9-0.9S28,5.8,28,6.2l0,0v20.5
	c0,1.7-1.6,3.3-3.5,3.3l0,0H7.4c-1.6-0.2-3.2-1.4-3.4-3l0,0V5.1C4,3,5.9,2,7.9,2l0,0H20.9z M15,9c-0.2,0-3,3.5-3,5.7
	c0,1.8,1.4,3.3,3,3.3s3-1.5,3-3.3C18,12.5,15.2,9,15,9z M10.5,6C10.4,6,9,7.8,9,8.9c0,0.9,0.7,1.6,1.5,1.6S12,9.8,12,8.9
	C12,7.8,10.6,6,10.5,6z"/>
<path id="路径" class="st1" d="M23.8,24.8H8.2c-0.5,0-0.9,0.3-0.9,0.9s0.4,0.9,0.9,0.9h15.5c0.5,0,0.9-0.3,0.9-0.9
	S24.3,24.8,23.8,24.8z"/>
</svg>
