<?xml version="1.0" encoding="utf-8"?>
<!-- Generator: Adobe Illustrator 24.1.3, SVG Export Plug-In . SVG Version: 6.00 Build 0)  -->
<svg version="1.1" id="图层_1" xmlns="http://www.w3.org/2000/svg" xmlns:xlink="http://www.w3.org/1999/xlink" x="0px" y="0px"
	 viewBox="0 0 32 32" style="enable-background:new 0 0 32 32;" xml:space="preserve">
<style type="text/css">
	.st0{fill:#FFFFFF;fill-opacity:0.65;}
	.st1{fill:#FFFFFF;fill-opacity:0.85;}
</style>
<path id="形状" class="st0" d="M7.3,17.2l0.2,0c0.4,0,0.8-0.4,0.9-0.7c0.3-1.1,0.8-2.2,1.4-3.1l1-1.1c0.4-0.4,0.4-1,0-1.3
	c-0.4-0.4-1-0.4-1.3,0c-0.4,0.4-0.9,0.8-1.2,1.3c-0.8,1.2-1.4,2.4-1.7,3.8C6.3,16.6,6.7,17.1,7.3,17.2z M19.2,26.1
	c-1.9,0.7-4,0.7-6-0.1c-0.5-0.2-1.1,0.1-1.3,0.5c-0.2,0.5,0.1,1.1,0.5,1.3c1.4,0.6,3,0.9,4.5,0.8c1-0.1,1.9-0.2,2.9-0.6
	c0.6-0.1,0.7-0.7,0.6-1.3C20.3,26.3,19.7,26,19.2,26.1z M22.6,12.7c1.1,1.2,1.7,2.6,2,4c0.1,0.4,0.5,0.9,1.1,0.8l0.1,0
	c0.6-0.1,0.9-0.6,0.8-1.2c-0.3-1.9-1.2-3.6-2.5-5c-0.4-0.4-0.7-0.7-1.2-1.1c-0.5-0.3-1-0.3-1.3,0.2c-0.3,0.5-0.3,1,0.2,1.3
	C22,12.1,22.3,12.4,22.6,12.7L22.6,12.7z"/>
<path id="形状结合" class="st1" d="M23.9,18.2c1.3-0.3,2.7-0.1,3.9,0.6c1.1,0.7,2,1.8,2.4,3.1c0.3,1.2,0.1,2.7-0.6,3.8
	c-0.7,1.1-1.8,2-3.1,2.4c-0.4,0.1-0.9,0.2-1.3,0.2c-0.9,0-1.8-0.2-2.6-0.7c-1.1-0.7-2-1.8-2.4-3.1s-0.1-2.7,0.6-3.9
	C21.4,19.4,22.5,18.5,23.9,18.2z M4.6,18.7c2.5-1.3,5.6-0.6,7.1,1.9c1.3,2.4,0.6,5.6-1.9,6.9C8.9,28,8,28.2,7.2,28.2
	c-1.8,0-3.5-0.9-4.5-2.6C1.3,23.3,2.1,20,4.6,18.7z M16.2,3c2.8,0,5.2,2.4,5.2,5.2s-2.4,5.2-5.2,5.2c-2.9,0-5.2-2.4-5.2-5.2
	S13.4,3,16.2,3z"/>
</svg>
