<?xml version="1.0" encoding="utf-8"?>
<!-- Generator: Adobe Illustrator 24.1.3, SVG Export Plug-In . SVG Version: 6.00 Build 0)  -->
<svg version="1.1" id="图层_1" xmlns="http://www.w3.org/2000/svg" xmlns:xlink="http://www.w3.org/1999/xlink" x="0px" y="0px"
	 viewBox="0 0 32 32" style="enable-background:new 0 0 32 32;" xml:space="preserve">
<style type="text/css">
	.st0{fill:#FFFFFF;fill-opacity:0.85;}
	.st1{fill:#FFFFFF;fill-opacity:0.65;}
</style>
<path id="形状" class="st0" d="M22.5,2c1.9,0,3.5,1.5,3.5,3.5v0.2l-0.4,0.4L14.5,17.6c-0.6,0.6-0.9,1.3-1.1,2.1L13,22.6
	c-0.2,1.1,0.6,2.1,1.7,2.3c0.2,0,0.4,0,0.6,0l3.3-0.5c0.8-0.1,1.5-0.5,2.1-1l5-4.7l0,0v7.8c0,1.9-1.5,3.5-3.5,3.5H5.5
	c-0.9,0-1.8-0.4-2.5-1s-1-1.6-1-2.5v-21C2,3.7,3.5,2,5.5,2H22.5z M18.1,6.8l-5.4,5.4l-2.2-2.4c-0.2-0.2-0.4-0.3-0.6-0.3
	c-0.2,0-0.5,0.1-0.6,0.3l-3,3C6.1,12.9,6,13.2,6,13.4s0.1,0.5,0.3,0.6c0.2,0.2,0.4,0.3,0.6,0.3s0.5-0.1,0.6-0.3l2.4-2.2l2,2.2
	c0.2,0.2,0.6,0.2,0.7,0.2c0.2,0,0.4,0,0.6-0.2l6.1-5.9c0.2-0.2,0.2-0.7-0.2-1.1C19,6.5,18.5,6.5,18.1,6.8z"/>
<path id="路径" class="st1" d="M24.6,9.2C25.9,7.9,27.9,8,29,9c1.1,1,1.3,3,0,4.3l-8.8,9c-0.4,0.4-1,0.7-1.6,0.8l-3.2,0.6
	c-0.5,0.1-1.1-0.2-1.2-0.8c0-0.1,0-0.3,0-0.4l0.5-2.7c0.1-0.6,0.4-1.1,0.8-1.6L24.6,9.2L24.6,9.2z"/>
</svg>
